<svg width="108" height="39" viewBox="0 0 108 39" fill="none" xmlns="http://www.w3.org/2000/svg">
<path d="M27.0919 18.9832L31.2281 12.1008L27.0919 5.21844H18.8655L14.7294 12.1008L18.8655 18.9832H27.0919ZM18.8655 21.2773L14.7294 28.1596L18.8655 35.0419H27.0919L31.2281 28.1596L27.0919 21.2773H18.8655ZM12.7532 27.0355L16.8894 20.1532L12.7532 13.2708H4.50382L0.390625 20.1532L4.50382 27.0355H12.7532Z" fill="#F2994A"/>
<path d="M58.8071 10.5529V29.8235H55.2225V21.5647H45.2405V29.8235H41.6558V10.5529H45.2405V18.5089H55.2225V10.5529H58.8071ZM63.6483 15.1228H67.0951V29.8235H63.6483V15.1228ZM65.3855 12.7002C64.7605 12.7002 64.2366 12.5075 63.8137 12.1221C63.3909 11.7183 63.1795 11.2228 63.1795 10.6355C63.1795 10.0482 63.3909 9.56186 63.8137 9.17645C64.2366 8.77268 64.7605 8.5708 65.3855 8.5708C66.0105 8.5708 66.5344 8.76351 66.9572 9.14892C67.38 9.51598 67.5915 9.98398 67.5915 10.5529C67.5915 11.1586 67.38 11.6724 66.9572 12.0946C66.5528 12.4983 66.0289 12.7002 65.3855 12.7002ZM85.4064 15.1228L79.0918 29.8235H75.5347L69.2202 15.1228H72.8049L77.3822 26.0244L82.0975 15.1228H85.4064ZM100.999 22.5557C100.999 22.7943 100.981 23.1339 100.944 23.5743H89.3902C89.5924 24.6572 90.1163 25.5197 90.962 26.1621C91.826 26.7861 92.8922 27.0981 94.1606 27.0981C95.7783 27.0981 97.1111 26.5659 98.1589 25.5014L100.006 27.6212C99.3446 28.4103 98.5082 29.0068 97.4971 29.4106C96.486 29.8143 95.3463 30.0162 94.0779 30.0162C92.4602 30.0162 91.0355 29.695 89.8038 29.0527C88.5722 28.4103 87.6163 27.5202 86.9361 26.3823C86.2743 25.2261 85.9434 23.923 85.9434 22.4732C85.9434 21.0416 86.2651 19.7569 86.9085 18.619C87.5703 17.4628 88.4803 16.5635 89.6384 15.9212C90.7965 15.2788 92.1017 14.9576 93.554 14.9576C94.9878 14.9576 96.2655 15.2788 97.3868 15.9212C98.5266 16.5452 99.4089 17.4353 100.034 18.5915C100.677 19.7294 100.999 21.0508 100.999 22.5557ZM93.554 17.7106C92.451 17.7106 91.5135 18.0409 90.7414 18.7016C89.9877 19.344 89.5281 20.2066 89.3626 21.2894H97.7177C97.5706 20.2249 97.1203 19.3623 96.3666 18.7016C95.6129 18.0409 94.6753 17.7106 93.554 17.7106Z" fill="#333333"/>
</svg>
